<svg width="15" height="15" viewBox="0 0 15 15" fill="none" xmlns="http://www.w3.org/2000/svg">
<path fill-rule="evenodd" clip-rule="evenodd" d="M2.64172 2.64172C2.83069 2.45276 3.13706 2.45276 3.32602 2.64172L7.5 6.8157L11.674 2.64172C11.8629 2.45276 12.1693 2.45276 12.3583 2.64172C12.5472 2.83069 12.5472 3.13706 12.3583 3.32602L8.1843 7.5L12.3583 11.674C12.5472 11.8629 12.5472 12.1693 12.3583 12.3583C12.1693 12.5472 11.8629 12.5472 11.674 12.3583L7.5 8.1843L3.32602 12.3583C3.13706 12.5472 2.83069 12.5472 2.64172 12.3583C2.45276 12.1693 2.45276 11.8629 2.64172 11.674L6.8157 7.5L2.64172 3.32602C2.45276 3.13706 2.45276 2.83069 2.64172 2.64172Z" fill="white"/>
</svg>
