<svg width="15" height="15" viewBox="0 0 15 15" fill="none" xmlns="http://www.w3.org/2000/svg">
<g clip-path="url(#clip0)">
<path d="M13.9713 13.6189L12.889 12.5366L11.8066 11.4543C11.6271 11.2731 11.444 11.0954 11.2673 10.9113C11.2647 10.9098 11.2622 10.9085 11.2595 10.9071L10.9004 10.548L14.921 6.52723L14.745 6.35118C13.1834 4.7894 10.8344 4.23307 8.7201 4.9121L7.49558 3.68775C7.65046 2.36287 7.19299 1.02732 6.25823 0.0925542L6.08234 -0.0834961L-0.083252 6.08193L0.0929651 6.25798C1.02757 7.19258 2.36261 7.65055 3.68816 7.49534L4.91268 8.71985C4.23365 10.834 4.78981 13.1831 6.35159 14.7447L6.52747 14.9208L10.5481 10.9001L10.9074 11.2594C10.9087 11.2619 10.9101 11.2646 10.9116 11.2671C11.0949 11.4435 11.2723 11.6258 11.4529 11.8049L12.8001 13.1521L13.619 13.971L14.1602 14.5122C14.3941 14.639 14.6263 14.7676 14.8774 14.8773C14.7677 14.6262 14.6391 14.394 14.5123 14.1601L13.9713 13.6189ZM5.43266 8.73519L5.48451 8.58748L3.86504 6.96802L3.74134 6.98602C2.61385 7.15057 1.46852 6.81231 0.626951 6.07593L6.07651 0.626707C6.81255 1.46811 7.15131 2.61394 6.98643 3.74093L6.96843 3.86463L8.58789 5.48409L8.7356 5.43225C10.6296 4.76806 12.7507 5.20101 14.2127 6.53139L6.53164 14.2123C5.20126 12.7503 4.76847 10.6286 5.43266 8.73519Z" fill="white"/>
<line x1="1.81019" y1="14.8373" x2="13.8102" y2="0.837304" stroke="white" stroke-width="0.5"/>
</g>
<defs>
<clipPath id="clip0">
<rect width="15" height="15" fill="white"/>
</clipPath>
</defs>
</svg>
