<svg width="22" height="22" viewBox="0 0 22 22" fill="none" xmlns="http://www.w3.org/2000/svg">
<g clip-path="url(#clip0)">
<path d="M14.1206 -6.43212e-05C13.9513 0.00670491 13.788 0.0371664 13.618 0.0794741L2.11535 2.88194C0.754732 3.21532 -0.0964982 4.58778 0.237733 5.94924L1.8505 12.534C1.94823 12.9262 2.13852 13.2893 2.40542 13.5929C2.67233 13.8965 3.00809 14.1317 3.38458 14.2788V12.6922C3.38458 10.3594 5.2825 8.46147 7.61535 8.46147H18.2718L16.6853 1.93001C16.5449 1.36226 16.2131 0.860263 15.7458 0.50867C15.2784 0.157078 14.7041 -0.0225994 14.1197 -6.43212e-05H14.1206ZM15.1512 3.6494L15.8391 6.5314L12.9833 7.21847L12.2692 4.3627L15.1512 3.6494ZM7.61535 10.1538C6.21412 10.1538 5.07689 11.291 5.07689 12.6922V19.4615C5.07689 20.8627 6.21412 21.9999 7.61535 21.9999H19.4615C20.8627 21.9999 22 20.8627 22 19.4615V12.6922C22 11.291 20.8627 10.1538 19.4615 10.1538H7.61535ZM7.61535 11.5026H19.4615C20.1139 11.5026 20.6512 12.0399 20.6512 12.6922V13.5384H6.42566V12.6922C6.42566 12.0399 6.96296 11.5026 7.61535 11.5026ZM6.42566 16.0769H20.6512V19.4615C20.6512 20.1139 20.1139 20.6512 19.4615 20.6512H7.61535C7.30037 20.6494 6.9988 20.5235 6.77607 20.3007C6.55335 20.078 6.42743 19.7765 6.42566 19.4615V16.0769Z" fill="#7C797B"/>
</g>
<defs>
<clipPath id="clip0">
<rect width="22" height="22" fill="white"/>
</clipPath>
</defs>
</svg>
