<svg width="55" height="55" viewBox="0 0 55 55" fill="none" xmlns="http://www.w3.org/2000/svg">
<g filter="url(#filter0_d_3413_5459)">
<circle cx="27.5" cy="27.5" r="22.5" fill="#516DE9"/>
</g>
<g clip-path="url(#clip0_3413_5459)">
<path d="M27.3612 18C27.5938 18.0598 27.8307 18.105 28.0571 18.1827C28.7074 18.4009 29.276 18.8193 29.6852 19.3806C30.0944 19.942 30.3243 20.6189 30.3434 21.319C30.3546 21.6372 30.3434 21.9599 30.3434 22.3067C30.6861 22.3067 31.0101 22.3023 31.3335 22.3067C31.9287 22.3163 32.3859 22.5887 32.7155 23.0895C32.8862 23.3541 32.9882 23.6587 33.0121 23.9748C33.1614 25.672 33.3094 27.3708 33.4562 29.0713C33.6316 31.0716 33.8051 33.0726 33.9886 35.0723C34.09 36.1784 33.3747 36.9994 32.2882 36.9994H21.6859C20.6622 36.9994 19.9301 36.221 20.0066 35.1817C20.08 34.1634 20.1814 33.1502 20.2704 32.1345C20.3736 30.9592 20.4773 29.7835 20.5813 28.6074C20.6978 27.2785 20.8146 25.9492 20.9315 24.6195C20.9564 24.3427 20.9719 24.0639 21.0154 23.7922C21.0743 23.3754 21.2794 22.9948 21.5924 22.7215C21.9055 22.4481 22.305 22.3007 22.7165 22.3067C23.0181 22.3067 23.3197 22.3067 23.6494 22.3067C23.6494 22.0375 23.6494 21.7798 23.6494 21.5214C23.6444 21.053 23.7016 20.5935 23.8857 20.1632C24.3963 18.9699 25.2708 18.2444 26.5383 18.0344C26.5723 18.0258 26.6056 18.0145 26.6378 18.0006L27.3612 18ZM23.6494 23.353H22.7787C22.3246 23.353 22.0323 23.6254 21.9888 24.09C21.9596 24.4038 21.9328 24.7175 21.9048 25.0319C21.7891 26.3493 21.6733 27.6667 21.5572 28.9842C21.4535 30.1662 21.3498 31.3481 21.2462 32.5297C21.166 33.4532 21.0845 34.3754 21.0098 35.3007C20.9843 35.6189 21.1112 35.8207 21.4042 35.9302C21.5173 35.9717 21.6366 35.9933 21.7568 35.9938C25.2397 35.9963 28.7207 35.9963 32.1999 35.9938C32.2304 35.9938 32.2621 35.9938 32.2907 35.9938C32.7105 35.9785 32.9748 35.6902 32.9462 35.2657C32.9282 34.9819 32.8983 34.6993 32.8741 34.4161C32.7725 33.2463 32.6709 32.0766 32.5693 30.9068C32.4545 29.5949 32.3388 28.2837 32.2223 26.973C32.1365 25.9999 32.0544 25.0275 31.9654 24.055C31.9343 23.7171 31.703 23.4052 31.4131 23.3791C31.0561 23.3467 30.6942 23.3715 30.311 23.3715V23.5751C30.311 24.237 30.311 24.8983 30.311 25.5602C30.3146 25.6588 30.3041 25.7574 30.2799 25.8529C30.243 25.9619 30.171 26.0547 30.0758 26.1164C29.9805 26.178 29.8677 26.2047 29.7556 26.1921C29.6338 26.1799 29.5208 26.1212 29.4393 26.0277C29.3577 25.9342 29.3135 25.8128 29.3153 25.6874C29.3091 24.9874 29.3122 24.2873 29.3116 23.591V23.3727H24.647V23.5917C24.647 24.2784 24.647 24.9645 24.647 25.6512C24.647 25.9121 24.5226 26.0967 24.3111 26.1673C23.9672 26.287 23.6531 26.04 23.6494 25.6384C23.6438 24.9581 23.6494 24.2778 23.6494 23.5974V23.353ZM24.6389 22.2908H29.3595C29.3595 21.9809 29.3644 21.6735 29.3595 21.3661C29.3436 20.7924 29.1282 20.2434 28.7519 19.8179C28.3756 19.3924 27.8633 19.1183 27.307 19.045C26.149 18.9006 25.0164 19.6643 24.7602 20.8207C24.6557 21.2897 24.6762 21.788 24.6389 22.2908Z" fill="white"/>
</g>
<circle cx="33.8219" cy="22.8219" r="2.82186" fill="#D75554"/>
<defs>
<filter id="filter0_d_3413_5459" x="0" y="0" width="55" height="55" filterUnits="userSpaceOnUse" color-interpolation-filters="sRGB">
<feFlood flood-opacity="0" result="BackgroundImageFix"/>
<feColorMatrix in="SourceAlpha" type="matrix" values="0 0 0 0 0 0 0 0 0 0 0 0 0 0 0 0 0 0 127 0" result="hardAlpha"/>
<feOffset/>
<feGaussianBlur stdDeviation="2.5"/>
<feComposite in2="hardAlpha" operator="out"/>
<feColorMatrix type="matrix" values="0 0 0 0 0 0 0 0 0 0 0 0 0 0 0 0 0 0 0.15 0"/>
<feBlend mode="normal" in2="BackgroundImageFix" result="effect1_dropShadow_3413_5459"/>
<feBlend mode="normal" in="SourceGraphic" in2="effect1_dropShadow_3413_5459" result="shape"/>
</filter>
<clipPath id="clip0_3413_5459">
<rect width="14" height="19" fill="white" transform="translate(20 18)"/>
</clipPath>
</defs>
</svg>
