<svg width="22" height="22" viewBox="0 0 22 22" fill="none" xmlns="http://www.w3.org/2000/svg">
<g clip-path="url(#clip0_3801_5736)">
<path d="M0 5.15623C0.0309375 5.03248 0.0601563 4.90873 0.0928125 4.78556C0.401042 3.61623 1.48271 2.75743 2.69385 2.75342C5.3075 2.74483 7.92115 2.74884 10.5348 2.75113C11.0539 2.75113 11.4543 3.12868 11.4738 3.6191C11.4939 4.13186 11.1335 4.53462 10.6076 4.58217C10.5222 4.58962 10.4357 4.58675 10.3497 4.58675C7.85068 4.58675 5.35161 4.58905 2.85255 4.58446C2.50766 4.58389 2.19599 4.66524 2.01839 4.96832C1.9124 5.14936 1.84708 5.38139 1.84479 5.59165C1.8299 7.00905 1.83734 8.42701 1.83734 9.84498C1.83734 12.9456 1.83734 16.0462 1.83734 19.1463C1.83734 19.6476 2.04932 19.9868 2.46125 20.1117C2.60849 20.1563 2.7712 20.1609 2.92703 20.1609C6.50719 20.1632 10.0873 20.1626 13.6681 20.1626C14.2765 20.1626 14.8855 20.1644 15.494 20.1626C16.1373 20.1603 16.5 19.7931 16.5 19.1457C16.5006 16.9045 16.5 14.6632 16.5006 12.422C16.5006 11.9585 16.7446 11.6038 17.1399 11.4818C17.6751 11.3168 18.2199 11.6508 18.3156 12.206C18.3299 12.2902 18.3362 12.3767 18.3362 12.4621C18.3373 14.7033 18.3454 16.9446 18.3333 19.1858C18.327 20.3786 17.769 21.2477 16.6902 21.7622C16.4559 21.8739 16.1918 21.9226 15.9414 22.0006H2.40625C2.37417 21.988 2.34266 21.969 2.30943 21.9633C1.17219 21.7605 0.32026 20.9556 0.0635938 19.8395C0.0446875 19.7576 0.0211979 19.6762 0 19.5943C0 14.7818 0 9.96931 0 5.15681L0 5.15623Z" fill="black"/>
<path d="M22 3.22269C21.9868 3.2542 21.9668 3.28514 21.961 3.3178C21.8717 3.82025 21.6408 4.2465 21.281 4.60629C18.5871 7.29957 15.8933 9.99228 13.2011 12.6873C13.0098 12.8792 12.7864 12.9835 12.5205 13.015C11.5752 13.1256 10.6305 13.2384 9.68573 13.3507C9.08359 13.4223 8.57885 12.9382 8.64589 12.3349C8.75359 11.361 8.86245 10.3864 8.99995 9.41592C9.02917 9.21139 9.14089 8.9828 9.28641 8.83613C11.9969 6.10962 14.7188 3.39342 17.4379 0.674933C17.8103 0.302537 18.2726 0.109465 18.7768 0.000610352C18.9916 0.000610352 19.2065 0.000610352 19.4213 0.000610352C19.4528 0.0137874 19.4838 0.0332666 19.517 0.0389958C20.4079 0.19311 21.1057 0.654881 21.5548 1.43004C21.7645 1.79155 21.8551 2.22238 21.9994 2.62228V3.22384L22 3.22269ZM10.6064 11.3936C11.0659 11.3392 11.4864 11.298 11.9029 11.2349C12.0123 11.2183 12.1338 11.1576 12.2123 11.0791C14.7824 8.51645 17.3485 5.94978 19.9146 3.38311C20.1999 3.0978 20.2394 2.86061 20.0624 2.49566C19.914 2.18915 19.6762 1.98691 19.3537 1.8815C19.0942 1.7967 18.873 1.83165 18.6685 2.03618C16.0801 4.63092 13.487 7.22108 10.8963 9.8141C10.8482 9.86223 10.7909 9.92467 10.7823 9.98655C10.7181 10.4449 10.6654 10.9044 10.6053 11.3936H10.6064Z" fill="black"/>
</g>
<defs>
<clipPath id="clip0_3801_5736">
<rect width="22" height="22" fill="white"/>
</clipPath>
</defs>
</svg>
