<svg width="14" height="14" viewBox="0 0 14 14" fill="none" xmlns="http://www.w3.org/2000/svg">
<g clip-path="url(#clip0_3801_6018)">
<path d="M7.40555 14H6.5853C6.35104 13.9705 6.11542 13.9493 5.88287 13.9106C4.42081 13.6664 3.14678 13.0373 2.0981 11.9896C0.525074 10.418 -0.167083 8.50761 0.0339542 6.29586C0.168892 4.8112 0.750085 3.4988 1.74294 2.38368C3.0615 0.902787 4.72083 0.105145 6.70106 0.00856503C8.08195 -0.0585615 9.3803 0.26303 10.5622 0.983955C12.3791 2.09223 13.4945 3.69744 13.8867 5.79481C13.9357 6.05715 13.96 6.32428 13.9956 6.58937V7.40961C13.9843 7.5079 13.973 7.6062 13.962 7.70483C13.7946 9.21107 13.2192 10.5399 12.2037 11.6667C11.1256 12.863 9.79025 13.6096 8.20079 13.8911C7.93742 13.9377 7.67063 13.964 7.4052 14H7.40555ZM6.99799 1.0867C3.73859 1.08293 1.09017 3.72724 1.08195 6.9935C1.07373 10.2484 3.71838 12.9 6.98532 12.913C10.243 12.9256 12.9089 10.2639 12.9082 6.99932C12.9075 3.73649 10.2625 1.09047 6.99799 1.0867Z" fill="#516DE9"/>
<path d="M6.45058 5.41465C6.45058 4.88141 6.44613 4.3485 6.45229 3.81526C6.45709 3.40428 6.83039 3.14331 7.19479 3.28681C7.41604 3.3738 7.53899 3.57347 7.53899 3.85533C7.53967 4.75743 7.54413 5.65987 7.53488 6.56197C7.53317 6.72328 7.58591 6.81472 7.7116 6.90685C8.29553 7.33495 8.87193 7.77401 9.45175 8.2076C9.65348 8.35829 9.74903 8.5535 9.68635 8.80249C9.59251 9.17511 9.17023 9.32923 8.84933 9.10764C8.64692 8.96791 8.4541 8.81482 8.25752 8.66721C7.76195 8.29562 7.27048 7.91786 6.76875 7.55483C6.54476 7.39283 6.44305 7.19385 6.44818 6.91815C6.45777 6.4171 6.45092 5.9157 6.45092 5.41465H6.45058Z" fill="#516DE9"/>
</g>
<defs>
<clipPath id="clip0_3801_6018">
<rect width="13.9955" height="14" fill="white"/>
</clipPath>
</defs>
</svg>
