<svg width="14" height="10" viewBox="0 0 14 10" fill="none" xmlns="http://www.w3.org/2000/svg">
<path d="M8.75001 5.41634C8.75001 5.96888 8.53052 6.49878 8.13982 6.88948C7.74911 7.28018 7.21921 7.49967 6.66668 7.49967C6.11414 7.49967 5.58424 7.28018 5.19354 6.88948C4.80284 6.49878 4.58334 5.96888 4.58334 5.41634C4.58334 4.86381 4.80284 4.3339 5.19354 3.9432C5.58424 3.5525 6.11414 3.33301 6.66668 3.33301C7.21921 3.33301 7.74911 3.5525 8.13982 3.9432C8.53052 4.3339 8.75001 4.86381 8.75001 5.41634Z" fill="#516DE9"/>
<path d="M1.66667 1.66667C1.22464 1.66667 0.800716 1.84226 0.488155 2.15482C0.175595 2.46738 0 2.89131 0 3.33333L0 8.33333C0 8.77536 0.175595 9.19928 0.488155 9.51184C0.800716 9.8244 1.22464 10 1.66667 10H11.6667C12.1087 10 12.5326 9.8244 12.8452 9.51184C13.1577 9.19928 13.3333 8.77536 13.3333 8.33333V3.33333C13.3333 2.89131 13.1577 2.46738 12.8452 2.15482C12.5326 1.84226 12.1087 1.66667 11.6667 1.66667H10.69C10.248 1.66657 9.82415 1.49092 9.51167 1.17833L8.82167 0.488333C8.50918 0.175751 8.08532 9.43957e-05 7.64333 0H5.69C5.24801 9.43957e-05 4.82415 0.175751 4.51167 0.488333L3.82167 1.17833C3.50918 1.49092 3.08532 1.66657 2.64333 1.66667H1.66667ZM2.08333 3.33333C1.97283 3.33333 1.86685 3.28943 1.78871 3.21129C1.71057 3.13315 1.66667 3.02717 1.66667 2.91667C1.66667 2.80616 1.71057 2.70018 1.78871 2.62204C1.86685 2.5439 1.97283 2.5 2.08333 2.5C2.19384 2.5 2.29982 2.5439 2.37796 2.62204C2.4561 2.70018 2.5 2.80616 2.5 2.91667C2.5 3.02717 2.4561 3.13315 2.37796 3.21129C2.29982 3.28943 2.19384 3.33333 2.08333 3.33333ZM9.58333 5.41667C9.58333 6.19021 9.27604 6.93208 8.72906 7.47906C8.18208 8.02604 7.44021 8.33333 6.66667 8.33333C5.89312 8.33333 5.15125 8.02604 4.60427 7.47906C4.05729 6.93208 3.75 6.19021 3.75 5.41667C3.75 4.64312 4.05729 3.90125 4.60427 3.35427C5.15125 2.80729 5.89312 2.5 6.66667 2.5C7.44021 2.5 8.18208 2.80729 8.72906 3.35427C9.27604 3.90125 9.58333 4.64312 9.58333 5.41667Z" fill="#516DE9"/>
</svg>
