<svg width="21" height="16" viewBox="0 0 21 16" fill="none" xmlns="http://www.w3.org/2000/svg">
<path d="M16.0231 4.5769L19.6 8.15383L16.0231 11.7307" stroke="#7C797B" stroke-linecap="round" stroke-linejoin="round"/>
<path d="M13.1615 4.57692V2.78846C13.1615 2.31413 12.9731 1.85923 12.6377 1.52383C12.3023 1.18843 11.8474 1 11.3731 1H2.78846C2.31413 1 1.85923 1.18843 1.52383 1.52383C1.18843 1.85923 1 2.31413 1 2.78846V13.5192C1 13.9936 1.18843 14.4485 1.52383 14.7839C1.85923 15.1193 2.31413 15.3077 2.78846 15.3077H11.3731C11.8474 15.3077 12.3023 15.1193 12.6377 14.7839C12.9731 14.4485 13.1615 13.9936 13.1615 13.5192V11.7308" stroke="#7C797B" stroke-linecap="round" stroke-linejoin="round"/>
<path d="M7.39368 8.15381H19.5999" stroke="#7C797B" stroke-linecap="round" stroke-linejoin="round"/>
</svg>
