<svg width="22" height="22" viewBox="0 0 22 22" fill="none" xmlns="http://www.w3.org/2000/svg">
<path d="M10.3092 2.22742C12.0858 2.08735 13.8631 2.49002 15.4059 3.38215C16.9488 4.27428 18.1843 5.61381 18.9492 7.22352C19.714 8.83322 19.9721 10.6372 19.6893 12.3968C19.4064 14.1564 18.596 15.7886 17.3652 17.0775C16.1344 18.3665 14.5413 19.2513 12.7967 19.615C11.052 19.9787 9.23801 19.8041 7.59474 19.1143C5.95148 18.4245 4.55638 17.252 3.59404 15.752C2.6317 14.252 2.14749 12.4952 2.20547 10.7139C2.20872 10.6056 2.23327 10.4989 2.27774 10.4001C2.3222 10.3012 2.3857 10.2121 2.4646 10.1378C2.54351 10.0635 2.63628 10.0055 2.73762 9.967C2.83895 9.92854 2.94687 9.91042 3.05521 9.91367C3.16356 9.91692 3.2702 9.94148 3.36904 9.98594C3.46789 10.0304 3.55702 10.0939 3.63133 10.1728C3.70564 10.2517 3.76368 10.3445 3.80214 10.4458C3.84059 10.5472 3.85872 10.6551 3.85547 10.7634C3.79972 12.4496 4.342 14.1011 5.3864 15.426C6.43081 16.7509 7.91007 17.6639 9.56262 18.0034C11.2152 18.3429 12.9345 18.0872 14.4167 17.2813C15.8989 16.4755 17.0484 15.1716 17.6619 13.6C18.2755 12.0285 18.3136 10.2906 17.7695 8.6937C17.2254 7.09678 16.1341 5.7437 14.6887 4.87371C13.2433 4.00372 11.5367 3.67286 9.87091 3.93964C8.20508 4.20642 6.68723 5.05365 5.58577 6.33152L5.36137 6.60432H7.97826L8.09047 6.61312C8.28793 6.64029 8.46888 6.73803 8.59986 6.88827C8.73085 7.03852 8.80301 7.2311 8.80301 7.43042C8.80301 7.62975 8.73085 7.82233 8.59986 7.97257C8.46888 8.12281 8.28793 8.22055 8.09047 8.24772L7.97826 8.25542H3.57827L3.46607 8.24772C3.2877 8.22323 3.12224 8.14106 2.99493 8.01376C2.86762 7.88645 2.78546 7.72099 2.76096 7.54262L2.75327 7.43042V3.03042L2.76096 2.91822C2.78546 2.73986 2.86762 2.5744 2.99493 2.44709C3.12224 2.31978 3.2877 2.23762 3.46607 2.21312L3.57827 2.20542L3.69047 2.21312C3.86883 2.23762 4.03429 2.31978 4.1616 2.44709C4.28891 2.5744 4.37107 2.73986 4.39557 2.91822L4.40326 3.03042L4.40216 5.17872C5.91196 3.46376 8.03116 2.40535 10.3092 2.22852V2.22742ZM10.725 6.60432L10.8372 6.61202C11.0155 6.63652 11.181 6.71868 11.3083 6.84599C11.4356 6.9733 11.5178 7.13876 11.5423 7.31712L11.55 7.42932V10.9988L13.475 10.9999L13.5872 11.0076C13.7855 11.0339 13.9675 11.1313 14.0993 11.2818C14.2311 11.4322 14.3038 11.6254 14.3038 11.8255C14.3038 12.0255 14.2311 12.2187 14.0993 12.3692C13.9675 12.5196 13.7855 12.617 13.5872 12.6433L13.475 12.6499H10.725L10.6128 12.6433C10.4342 12.6188 10.2687 12.5364 10.1413 12.4089C10.014 12.2814 9.93193 12.1157 9.90766 11.9371L9.89996 11.8249V7.42932L9.90766 7.31712C9.93216 7.13876 10.0143 6.9733 10.1416 6.84599C10.2689 6.71868 10.4344 6.63652 10.6128 6.61202L10.725 6.60432Z" fill="#7C797B"/>
</svg>
