<svg width="46" height="46" viewBox="0 0 46 46" fill="none" xmlns="http://www.w3.org/2000/svg">
<g filter="url(#filter0_d)">
<circle cx="23" cy="20" r="15" fill="white"/>
</g>
<path d="M23 30C23.6193 30.0008 24.2235 29.8086 24.7285 29.4502C25.2335 29.0917 25.6143 28.5849 25.818 28H20.182C20.3857 28.5849 20.7665 29.0917 21.2715 29.4502C21.7765 29.8086 22.3807 30.0008 23 30ZM30 22.586V18C30 14.783 27.815 12.073 24.855 11.258C24.562 10.52 23.846 10 23 10C22.154 10 21.438 10.52 21.145 11.258C18.184 12.073 16 14.783 16 18V22.586L14.293 24.293C14.2 24.3857 14.1262 24.4959 14.0759 24.6172C14.0256 24.7386 13.9998 24.8687 14 25V26C14 26.2652 14.1054 26.5196 14.2929 26.7071C14.4804 26.8946 14.7348 27 15 27H31C31.2652 27 31.5196 26.8946 31.7071 26.7071C31.8946 26.5196 32 26.2652 32 26V25C32.0002 24.8687 31.9744 24.7386 31.9241 24.6172C31.8738 24.4959 31.8 24.3857 31.707 24.293L30 22.586Z" fill="#516DE9"/>
<defs>
<filter id="filter0_d" x="0" y="0" width="46" height="46" filterUnits="userSpaceOnUse" color-interpolation-filters="sRGB">
<feFlood flood-opacity="0" result="BackgroundImageFix"/>
<feColorMatrix in="SourceAlpha" type="matrix" values="0 0 0 0 0 0 0 0 0 0 0 0 0 0 0 0 0 0 127 0" result="hardAlpha"/>
<feOffset dy="3"/>
<feGaussianBlur stdDeviation="4"/>
<feComposite in2="hardAlpha" operator="out"/>
<feColorMatrix type="matrix" values="0 0 0 0 0 0 0 0 0 0 0 0 0 0 0 0 0 0 0.09 0"/>
<feBlend mode="normal" in2="BackgroundImageFix" result="effect1_dropShadow"/>
<feBlend mode="normal" in="SourceGraphic" in2="effect1_dropShadow" result="shape"/>
</filter>
</defs>
</svg>
