<svg width="26" height="26" viewBox="0 0 26 26" fill="none" xmlns="http://www.w3.org/2000/svg">
<path fill-rule="evenodd" clip-rule="evenodd" d="M12.4444 3.83341C7.68774 3.83341 3.83332 7.68477 3.83332 12.4336C3.83332 17.1825 7.68774 21.0338 12.4444 21.0338C14.8175 21.0338 16.9649 20.0762 18.5232 18.5251C20.0885 16.9669 21.0555 14.8138 21.0555 12.4336C21.0555 7.68477 17.2011 3.83341 12.4444 3.83341ZM2.16666 12.4336C2.16666 6.76248 6.76908 2.16675 12.4444 2.16675C18.1198 2.16675 22.7222 6.76248 22.7222 12.4336C22.7222 14.9744 21.7974 17.3006 20.2673 19.0928L23.5889 22.4105C23.9145 22.7357 23.9148 23.2634 23.5896 23.589C23.2643 23.9146 22.7367 23.9149 22.4111 23.5897L19.0864 20.2688C17.2954 21.7851 14.9763 22.7005 12.4444 22.7005C6.76908 22.7005 2.16666 18.1048 2.16666 12.4336Z" fill="#979797"/>
</svg>
