<svg width="26" height="26" viewBox="0 0 26 26" fill="none" xmlns="http://www.w3.org/2000/svg">
<path d="M11.8352 3.76979C11.9425 3.55209 12.1086 3.36876 12.3147 3.24057C12.5207 3.11238 12.7586 3.04443 13.0013 3.04443C13.244 3.04443 13.4819 3.11238 13.6879 3.24057C13.894 3.36876 14.0601 3.55209 14.1674 3.76979L16.6764 8.85279L22.2885 9.66919C22.5286 9.70406 22.7542 9.80543 22.9397 9.96183C23.1252 10.1182 23.2632 10.3234 23.3381 10.5542C23.4131 10.7849 23.4219 11.0321 23.3637 11.2676C23.3055 11.5032 23.1825 11.7177 23.0087 11.887L18.9475 15.8442L19.9069 21.4342C19.9479 21.6733 19.9211 21.919 19.8297 22.1437C19.7383 22.3684 19.5858 22.563 19.3896 22.7055C19.1933 22.8481 18.9611 22.9329 18.7192 22.9504C18.4773 22.9678 18.2353 22.9173 18.0206 22.8044L13.0026 20.1654L7.982 22.8044C7.76724 22.917 7.52526 22.9673 7.2834 22.9497C7.04155 22.932 6.80946 22.847 6.61337 22.7043C6.41728 22.5616 6.26501 22.367 6.17376 22.1423C6.08251 21.9176 6.05592 21.6719 6.097 21.4329L7.0551 15.8442L2.9939 11.887C2.82008 11.7177 2.69711 11.5032 2.6389 11.2676C2.58068 11.0321 2.58954 10.7849 2.66448 10.5542C2.73942 10.3234 2.87744 10.1182 3.06294 9.96183C3.24843 9.80543 3.47399 9.70406 3.7141 9.66919L9.3262 8.85409L11.8352 3.76849V3.76979ZM13.0013 4.34439L10.4923 9.42869C10.399 9.6177 10.2611 9.78119 10.0906 9.90507C9.92009 10.0289 9.72199 10.1095 9.5134 10.1398L3.9 10.9562L7.9612 14.9134C8.11197 15.0606 8.2247 15.2422 8.28969 15.4426C8.35469 15.643 8.37 15.8562 8.3343 16.0639L7.3762 21.6539L12.3942 19.0149C12.5808 18.9167 12.7885 18.8655 12.9993 18.8655C13.2102 18.8655 13.4179 18.9167 13.6045 19.0149L18.6238 21.6539L17.6657 16.0639C17.63 15.8562 17.6453 15.643 17.7103 15.4426C17.7753 15.2422 17.888 15.0606 18.0388 14.9134L22.1 10.9562L16.4879 10.1398C16.2795 10.1093 16.0817 10.0287 15.9114 9.90479C15.7411 9.78092 15.6035 9.61754 15.5103 9.42869L13.0013 4.34439Z" fill="#516DE9"/>
</svg>
