<svg width="22" height="22" viewBox="0 0 22 22" fill="none" xmlns="http://www.w3.org/2000/svg">
<path d="M11.0611 6.72217C8.67777 6.72217 6.78333 8.61661 6.78333 10.9999C6.78333 13.3833 8.67777 15.2777 11.0611 15.2777C13.4444 15.2777 15.3389 13.3833 15.3389 10.9999C15.3389 8.61661 13.4444 6.72217 11.0611 6.72217ZM11.0611 14.0555C9.34999 14.0555 8.00555 12.7111 8.00555 10.9999C8.00555 9.28883 9.34999 7.94439 11.0611 7.94439C12.7722 7.94439 14.1167 9.28883 14.1167 10.9999C14.1167 12.7111 12.7722 14.0555 11.0611 14.0555Z" fill="#7C797B"/>
<path d="M20.0444 8.98328L18.3333 8.43328L17.9666 7.51661L18.8222 5.92772C19.0055 5.56106 18.9444 5.07217 18.6388 4.76661L17.1722 3.29995C16.8666 2.99439 16.3777 2.93328 16.0111 3.11661L14.4222 3.97217L13.5055 3.6055L12.9555 1.89439C12.8333 1.52772 12.4666 1.22217 12.0388 1.22217H9.96106C9.53328 1.22217 9.16661 1.52772 9.1055 1.9555L8.5555 3.66661C8.18883 3.72772 7.88328 3.84995 7.57772 4.03328L5.98883 3.17772C5.62217 2.99439 5.13328 3.0555 4.82772 3.36106L3.36106 4.82772C3.0555 5.13328 2.99439 5.62217 3.17772 5.98883L3.97217 7.51661C3.84995 7.82217 3.72772 8.18883 3.6055 8.49439L1.89439 9.04439C1.52772 9.16661 1.22217 9.53328 1.22217 9.96106V12.0388C1.22217 12.4666 1.52772 12.8333 1.9555 12.9555L3.66661 13.5055L4.03328 14.4222L3.17772 16.0111C2.99439 16.3777 3.0555 16.8666 3.36106 17.1722L4.82772 18.6388C5.13328 18.9444 5.62217 19.0055 5.98883 18.8222L7.57772 17.9666L8.49439 18.3333L9.04439 20.1055C9.16661 20.4722 9.53328 20.7777 9.96106 20.7777H12.0388C12.4666 20.7777 12.8333 20.4722 12.9555 20.1055L13.5055 18.3333L14.4222 17.9666L16.0111 18.8222C16.3777 19.0055 16.8666 18.9444 17.1722 18.6388L18.6388 17.1722C18.9444 16.8666 19.0055 16.3777 18.8222 16.0111L17.9666 14.4222L18.3333 13.5055L20.1055 12.9555C20.4722 12.8333 20.7777 12.4666 20.7777 12.0388V9.96106C20.7777 9.53328 20.4722 9.1055 20.0444 8.98328ZM19.5555 11.8555L17.3555 12.5277L17.2944 12.8333L16.7444 14.1166L16.5611 14.4222L17.6611 16.4388L16.4388 17.6611L14.4222 16.5611L14.1166 16.7444C13.6888 16.9888 13.2611 17.1722 12.8333 17.2944L12.5277 17.3555L11.8555 19.5555H10.1444L9.47217 17.3555L9.16661 17.2944L7.88328 16.7444L7.57772 16.5611L5.56106 17.6611L4.33883 16.4388L5.43883 14.4222L5.2555 14.1166C5.01106 13.6888 4.82772 13.2611 4.7055 12.8333L4.64439 12.5277L2.44439 11.8555V10.1444L4.52217 9.53328L4.64439 9.22772C4.76661 8.73883 4.94995 8.31106 5.19439 7.88328L5.37772 7.57772L4.33883 5.56106L5.56106 4.33883L7.51661 5.43883L7.82217 5.2555C8.24995 5.01106 8.67772 4.82772 9.16661 4.7055L9.47217 4.58328L10.1444 2.44439H11.8555L12.5277 4.58328L12.8333 4.7055C13.2611 4.82772 13.6888 5.01106 14.1166 5.2555L14.4222 5.43883L16.4388 4.33883L17.6611 5.56106L16.5611 7.57772L16.7444 7.88328C16.9888 8.31106 17.1722 8.73883 17.2944 9.16661L17.3555 9.47217L19.5555 10.1444V11.8555Z" fill="#7C797B"/>
</svg>
