<svg width="80" height="80" viewBox="0 0 80 80" fill="none" xmlns="http://www.w3.org/2000/svg">
<circle cx="40" cy="40" r="40" fill="#83A7D3" fill-opacity="0.25"/>
<mask id="mask0" style="mask-type:alpha" maskUnits="userSpaceOnUse" x="0" y="0" width="80" height="80">
<circle cx="40" cy="40" r="40" fill="#ffffff"/>
</mask>
<g mask="url(#mask0)">
<g clip-path="url(#clip0)">
<path d="M50 76.4424C47.2308 72.5962 45.0641 65.1603 44.8077 61.4424L31.6346 55.7692L26.1539 76.4424H50Z" fill="white" stroke="black" stroke-width="0.769231"/>
<mask id="mask1" style="mask-type:alpha" maskUnits="userSpaceOnUse" x="26" y="55" width="24" height="24">
<path d="M50 78.3654C47.2308 74.5193 45.0641 65.1603 44.8077 61.4424L31.6346 55.7692L26.1539 78.3654H50Z" fill="#AC6651"/>
</mask>
<g mask="url(#mask1)">
<g style="mix-blend-mode:multiply">
<ellipse cx="44.2308" cy="55.3846" rx="11.3462" ry="10.3846" fill="black"/>
</g>
</g>
<mask id="path-6-inside-1" fill="white">
<path fill-rule="evenodd" clip-rule="evenodd" d="M55.7474 44.0223C55.7422 44.0001 55.737 43.9779 55.7316 43.9558C55.7263 43.9336 55.721 43.9114 55.7155 43.8893L52.5622 30.7278C52.5591 30.7149 52.556 30.7019 52.5529 30.689C52.5498 30.676 52.5467 30.6631 52.5436 30.6501L52.5295 30.5915L52.5293 30.5916C50.5642 22.6214 42.5303 17.7207 34.5352 19.6363C26.5402 21.5518 21.5993 29.5612 23.4595 37.5564L23.4591 37.5565L26.7267 51.1946L26.7294 51.1939C28.7684 59.0602 36.7428 63.8749 44.6789 61.9735C52.6151 60.072 57.5418 52.1663 55.7947 44.2301L55.7971 44.2296L55.7474 44.0223Z"/>
</mask>
<path fill-rule="evenodd" clip-rule="evenodd" d="M55.7474 44.0223C55.7422 44.0001 55.737 43.9779 55.7316 43.9558C55.7263 43.9336 55.721 43.9114 55.7155 43.8893L52.5622 30.7278C52.5591 30.7149 52.556 30.7019 52.5529 30.689C52.5498 30.676 52.5467 30.6631 52.5436 30.6501L52.5295 30.5915L52.5293 30.5916C50.5642 22.6214 42.5303 17.7207 34.5352 19.6363C26.5402 21.5518 21.5993 29.5612 23.4595 37.5564L23.4591 37.5565L26.7267 51.1946L26.7294 51.1939C28.7684 59.0602 36.7428 63.8749 44.6789 61.9735C52.6151 60.072 57.5418 52.1663 55.7947 44.2301L55.7971 44.2296L55.7474 44.0223Z" fill="white"/>
<path d="M55.7474 44.0223L54.9986 44.1982L54.9994 44.2016L55.7474 44.0223ZM55.7316 43.9558L56.4797 43.7766L56.4797 43.7765L55.7316 43.9558ZM55.7155 43.8893L54.9675 44.0685L54.9683 44.0718L55.7155 43.8893ZM52.5622 30.7278L51.8136 30.9051L51.8141 30.9071L52.5622 30.7278ZM52.5529 30.689L51.8049 30.8682L51.8049 30.8682L52.5529 30.689ZM52.5436 30.6501L51.7955 30.8294L51.796 30.8313L52.5436 30.6501ZM52.5295 30.5915L53.2776 30.4123L53.0981 29.6631L52.3492 29.8437L52.5295 30.5915ZM52.5293 30.5916L51.7824 30.7757L51.9656 31.5188L52.7096 31.3394L52.5293 30.5916ZM34.5352 19.6363L34.7145 20.3843L34.5352 19.6363ZM23.4595 37.5564L23.6396 38.3043L24.3817 38.1256L24.2087 37.3821L23.4595 37.5564ZM23.4591 37.5565L23.279 36.8087L22.532 36.9885L22.7111 37.7357L23.4591 37.5565ZM26.7267 51.1946L25.9786 51.3738L26.1578 52.1217L26.9057 51.9427L26.7267 51.1946ZM26.7294 51.1939L27.474 51.0009L27.2846 50.2701L26.5503 50.4458L26.7294 51.1939ZM44.6789 61.9735L44.4997 61.2254L44.6789 61.9735ZM55.7947 44.2301L55.6152 43.4821L54.8812 43.6583L55.0435 44.3955L55.7947 44.2301ZM55.7971 44.2296L55.9766 44.9776L56.7243 44.7981L56.5451 44.0503L55.7971 44.2296ZM56.4963 43.8464C56.4908 43.8231 56.4853 43.7998 56.4797 43.7766L54.9836 44.1349C54.9886 44.1561 54.9936 44.1771 54.9986 44.1982L56.4963 43.8464ZM56.4797 43.7765C56.4741 43.7532 56.4685 43.73 56.4628 43.7067L54.9683 44.0718C54.9734 44.0929 54.9785 44.1139 54.9836 44.135L56.4797 43.7765ZM51.8141 30.9071L54.9675 44.0685L56.4636 43.71L53.3102 30.5486L51.8141 30.9071ZM53.3107 30.5506C53.3075 30.5369 53.3042 30.5233 53.301 30.5098L51.8049 30.8682C51.8078 30.8805 51.8108 30.8928 51.8137 30.9051L53.3107 30.5506ZM53.301 30.5098C53.2977 30.4961 53.2944 30.4825 53.2912 30.4689L51.796 30.8313C51.799 30.8437 51.8019 30.8559 51.8049 30.8682L53.301 30.5098ZM51.7815 30.7707L51.7955 30.8294L53.2916 30.4709L53.2776 30.4123L51.7815 30.7707ZM52.7096 31.3394L52.7098 31.3393L52.3492 29.8437L52.3489 29.8438L52.7096 31.3394ZM53.2761 30.4074C51.2099 22.027 42.7625 16.8741 34.356 18.8882L34.7145 20.3843C42.298 18.5674 49.9185 23.2159 51.7824 30.7757L53.2761 30.4074ZM34.356 18.8882C25.9495 20.9024 20.7544 29.3239 22.7103 37.7307L24.2087 37.3821C22.4443 29.7984 27.1309 22.2013 34.7145 20.3843L34.356 18.8882ZM23.6392 38.3044L23.6396 38.3043L23.2794 36.8086L23.279 36.8087L23.6392 38.3044ZM27.4747 51.0153L24.2072 37.3773L22.7111 37.7357L25.9786 51.3738L27.4747 51.0153ZM26.5503 50.4458L26.5477 50.4465L26.9057 51.9427L26.9084 51.942L26.5503 50.4458ZM25.9847 51.3869C28.1288 59.6583 36.5135 64.7208 44.8582 62.7215L44.4997 61.2254C36.9721 63.0289 29.408 58.4621 27.474 51.0009L25.9847 51.3869ZM44.8582 62.7215C53.2028 60.7222 58.383 52.4097 56.5459 44.0647L55.0435 44.3955C56.7006 51.923 52.0273 59.4219 44.4997 61.2254L44.8582 62.7215ZM55.6176 43.4816L55.6152 43.4821L55.9742 44.9781L55.9766 44.9776L55.6176 43.4816ZM54.9994 44.2016L55.049 44.4088L56.5451 44.0503L56.4955 43.8431L54.9994 44.2016Z" fill="black" mask="url(#path-6-inside-1)"/>
</g>
<path d="M54.7651 21.7685C53.1647 29.441 34.2501 30.5185 30.4382 30.5185C20.4338 31.6582 25.2358 43.6658 27.0728 49.6531C25.6305 49.8454 25.8228 51.5762 20.2459 37.8262C15.7843 26.8262 28.4201 20.1218 37.8077 17.846C47.1954 15.5702 50.7885 12.3657 50.7885 12.3657C54.7651 14 55.7149 17.215 54.7651 21.7685Z" fill="black"/>
<path d="M53.7952 35.9128L50.7532 25.6359L52.6836 23.8778C54.752 31.01 54.8465 35.1516 53.7952 35.9128Z" fill="black"/>
<path d="M29.8078 44.8077C28.7309 39.5769 26.0257 40.5128 24.2309 40.7692L22.3078 32.3077L30.1125 30.6741C30.2571 30.628 30.4118 30.5953 30.577 30.5769L30.1125 30.6741C26.6219 31.7882 29.0302 40.7299 31.9232 44.4231L29.8078 44.8077Z" fill="black"/>
<path d="M19.2288 25.0698C20.9299 24.2133 22.9388 24.7091 23.7306 25.064L21.467 27.9256C22.0507 26.9917 20.2181 25.6326 19.2288 25.0698Z" fill="black"/>
<path d="M16.3462 28.3654C18.577 27.0577 20.7372 27.5 21.5385 27.8846L20.6731 30.8654C20.4423 29.2501 17.6923 28.5257 16.3462 28.3654Z" fill="black"/>
<ellipse cx="36.7942" cy="40.4622" rx="1.73077" ry="2.59615" transform="rotate(-6.77646 36.7942 40.4622)" fill="black"/>
<ellipse cx="49.1019" cy="38.5391" rx="1.73077" ry="2.59615" transform="rotate(-6.27568 49.1019 38.5391)" fill="black"/>
<path d="M66.2242 82.8583H13.7416C13.7482 82.8448 13.7549 82.8312 13.7616 82.8175C14.6356 81.0375 16.2481 77.7537 18.3467 74.8157C19.5377 73.1481 20.8712 71.613 22.2965 70.5331C23.7219 69.4531 25.2041 68.854 26.7099 68.9857C29.605 69.239 32.1837 70.8241 34.7724 72.4155C35.0177 72.5663 35.2631 72.7171 35.5089 72.8669C38.2944 74.5644 41.1549 76.1406 44.3009 75.4509C45.3652 75.2175 46.0825 74.7182 46.5339 74.0731C46.9789 73.4371 47.1389 72.698 47.1665 72.0224C47.1942 71.346 47.0906 70.7065 46.9829 70.2416C46.9326 70.0242 46.8806 69.842 46.8392 69.7085C47.5363 69.0068 48.2744 68.5981 49.0364 68.4141C49.8623 68.2147 50.7454 68.2723 51.6744 68.5471C53.5455 69.1006 55.5475 70.5187 57.5013 72.3421C61.081 75.683 64.3655 80.2545 66.2242 82.8583Z" fill="white" stroke="black" stroke-width="0.821982"/>
<path d="M47.8846 33.3104C48.9743 32.7976 51.5384 32.3296 53.0769 34.5604" stroke="black" stroke-width="0.769231" stroke-linecap="round"/>
<path d="M33.3806 38.1771C33.7788 37.0405 35.2425 34.8838 37.9119 35.3505" stroke="black" stroke-width="0.769231" stroke-linecap="round"/>
<path d="M43.3283 42.1807C44.3756 41.9421 46.0931 42.3 45.7161 44.2083C45.381 45.9043 43.5796 45.9972 43.0769 45.5201" stroke="black" stroke-width="0.769231"/>
<path d="M39.8077 51.5703C40.7578 52.81 42.1975 54.1835 44.4185 53.8703C46.6395 53.5571 47.6276 52.0251 47.3363 50.7843" stroke="black" stroke-width="0.769231"/>
</g>
<path d="M27.9808 41.1876C27.5327 41.0401 27.049 40.9615 26.5538 40.9615C24.5359 40.9615 22.9 42.2115 23.0923 44.5192C23.2926 46.9231 24.7282 47.7885 26.7461 47.7885C26.9707 47.7885 27.1905 47.7688 27.4038 47.731C27.6366 47.6898 27.8617 47.6271 28.0769 47.5451" stroke="black" stroke-width="1.53846"/>
<path d="M28.1731 47.507C27.7347 47.6882 27.2524 47.7885 26.7461 47.7885C24.7282 47.7885 23.2926 46.9231 23.0923 44.5192C22.9 42.2115 24.5359 40.9615 26.5538 40.9615C27.1572 40.9615 27.7436 41.0782 28.2692 41.2942L28.1731 47.507Z" fill="white"/>
<path d="M27.4038 42.5963C26.6346 42.2437 24.9423 42.0578 24.3269 44.1347" stroke="black" stroke-width="0.769231"/>
<path d="M25.3846 42.6923C25.8012 43.0449 26.5961 44.1346 26.4423 45.6731" stroke="black" stroke-width="0.769231"/>
<defs>
<clipPath id="clip0">
<rect width="38.4615" height="61.5385" fill="white" transform="translate(20.3846 15)"/>
</clipPath>
</defs>
</svg>
