<svg width="80" height="80" viewBox="0 0 80 80" fill="none" xmlns="http://www.w3.org/2000/svg">
<circle cx="40" cy="40" r="40" fill="#83A7D3" fill-opacity="0.25"/>
<mask id="mask0" style="mask-type:alpha" x="0" y="0" width="80" height="80">
<circle cx="40" cy="40" r="40" fill="#ffffff"/>
</mask>
<g mask="url(#mask0)">
<g clip-path="url(#clip0)">
<path d="M51.5385 76.4424C48.7692 72.5962 46.6026 65.1603 46.3462 61.4424L33.1731 55.7692L27.6923 76.4424H51.5385Z" fill="white" stroke="black" stroke-width="0.769231"/>
<mask id="mask1" style="mask-type:alpha" x="27" y="55" width="25" height="24">
<path d="M51.5385 78.3654C48.7692 74.5193 46.6026 65.1603 46.3462 61.4424L33.1731 55.7692L27.6923 78.3654H51.5385Z" fill="#AC6651"/>
</mask>
<g mask="url(#mask1)">
<g style="mix-blend-mode:multiply">
<ellipse cx="45.7692" cy="55.3846" rx="11.3462" ry="10.3846" fill="black"/>
</g>
</g>
<mask id="path-6-inside-1" fill="white">
<path fill-rule="evenodd" clip-rule="evenodd" d="M57.2859 44.0223C57.2807 44.0001 57.2754 43.9779 57.2701 43.9558C57.2648 43.9336 57.2594 43.9114 57.254 43.8893L54.1006 30.7278C54.0976 30.7149 54.0945 30.7019 54.0914 30.689C54.0883 30.676 54.0852 30.6631 54.082 30.6501L54.068 30.5915L54.0677 30.5916C52.1027 22.6214 44.0687 17.7207 36.0737 19.6363C28.0786 21.5518 23.1378 29.5612 24.998 37.5564L24.9976 37.5565L28.2651 51.1946L28.2678 51.1939C30.3068 59.0602 38.2813 63.8749 46.2174 61.9735C54.1535 60.072 59.0803 52.1663 57.3332 44.2301L57.3355 44.2296L57.2859 44.0223Z"/>
</mask>
<path fill-rule="evenodd" clip-rule="evenodd" d="M57.2859 44.0223C57.2807 44.0001 57.2754 43.9779 57.2701 43.9558C57.2648 43.9336 57.2594 43.9114 57.254 43.8893L54.1006 30.7278C54.0976 30.7149 54.0945 30.7019 54.0914 30.689C54.0883 30.676 54.0852 30.6631 54.082 30.6501L54.068 30.5915L54.0677 30.5916C52.1027 22.6214 44.0687 17.7207 36.0737 19.6363C28.0786 21.5518 23.1378 29.5612 24.998 37.5564L24.9976 37.5565L28.2651 51.1946L28.2678 51.1939C30.3068 59.0602 38.2813 63.8749 46.2174 61.9735C54.1535 60.072 59.0803 52.1663 57.3332 44.2301L57.3355 44.2296L57.2859 44.0223Z" fill="white"/>
<path d="M57.2859 44.0223L56.537 44.1982L56.5378 44.2016L57.2859 44.0223ZM57.2701 43.9558L58.0182 43.7766L58.0181 43.7765L57.2701 43.9558ZM57.254 43.8893L56.5059 44.0685L56.5067 44.0718L57.254 43.8893ZM54.1006 30.7278L53.3521 30.9051L53.3526 30.9071L54.1006 30.7278ZM54.0914 30.689L53.3433 30.8682L53.3433 30.8682L54.0914 30.689ZM54.082 30.6501L53.334 30.8294L53.3344 30.8313L54.082 30.6501ZM54.068 30.5915L54.816 30.4123L54.6366 29.6631L53.8877 29.8437L54.068 30.5915ZM54.0677 30.5916L53.3208 30.7757L53.504 31.5188L54.248 31.3394L54.0677 30.5916ZM36.0737 19.6363L36.2529 20.3843L36.0737 19.6363ZM24.998 37.5564L25.178 38.3043L25.9201 38.1256L25.7472 37.3821L24.998 37.5564ZM24.9976 37.5565L24.8175 36.8087L24.0705 36.9885L24.2495 37.7357L24.9976 37.5565ZM28.2651 51.1946L27.5171 51.3738L27.6963 52.1217L28.4442 51.9427L28.2651 51.1946ZM28.2678 51.1939L29.0124 51.0009L28.823 50.2701L28.0888 50.4458L28.2678 51.1939ZM46.2174 61.9735L46.0382 61.2254L46.2174 61.9735ZM57.3332 44.2301L57.1537 43.4821L56.4196 43.6583L56.5819 44.3955L57.3332 44.2301ZM57.3355 44.2296L57.515 44.9776L58.2628 44.7981L58.0836 44.0503L57.3355 44.2296ZM58.0347 43.8464C58.0293 43.8231 58.0237 43.7998 58.0182 43.7766L56.522 44.1349C56.5271 44.1561 56.5321 44.1771 56.537 44.1982L58.0347 43.8464ZM58.0181 43.7765C58.0126 43.7532 58.0069 43.73 58.0013 43.7067L56.5067 44.0718C56.5119 44.0929 56.517 44.1139 56.522 44.135L58.0181 43.7765ZM53.3526 30.9071L56.5059 44.0685L58.0021 43.71L54.8487 30.5486L53.3526 30.9071ZM54.8492 30.5506C54.8459 30.5369 54.8427 30.5233 54.8394 30.5098L53.3433 30.8682C53.3463 30.8805 53.3492 30.8928 53.3521 30.9051L54.8492 30.5506ZM54.8394 30.5098C54.8362 30.4961 54.8329 30.4825 54.8296 30.4689L53.3344 30.8313C53.3374 30.8437 53.3404 30.8559 53.3433 30.8682L54.8394 30.5098ZM53.3199 30.7707L53.334 30.8294L54.8301 30.4709L54.816 30.4123L53.3199 30.7707ZM54.248 31.3394L54.2483 31.3393L53.8877 29.8437L53.8874 29.8438L54.248 31.3394ZM54.8146 30.4074C52.7484 22.027 44.301 16.8741 35.8945 18.8882L36.2529 20.3843C43.8365 18.5674 51.457 23.2159 53.3208 30.7757L54.8146 30.4074ZM35.8945 18.8882C27.4879 20.9024 22.2928 29.3239 24.2487 37.7307L25.7472 37.3821C23.9828 29.7984 28.6694 22.2013 36.2529 20.3843L35.8945 18.8882ZM25.1777 38.3044L25.178 38.3043L24.8179 36.8086L24.8175 36.8087L25.1777 38.3044ZM29.0132 51.0153L25.7456 37.3773L24.2495 37.7357L27.5171 51.3738L29.0132 51.0153ZM28.0888 50.4458L28.0861 50.4465L28.4442 51.9427L28.4468 51.942L28.0888 50.4458ZM27.5232 51.3869C29.6672 59.6583 38.052 64.7208 46.3966 62.7215L46.0382 61.2254C38.5106 63.0289 30.9464 58.4621 29.0124 51.0009L27.5232 51.3869ZM46.3966 62.7215C54.7413 60.7222 59.9215 52.4097 58.0844 44.0647L56.5819 44.3955C58.2391 51.923 53.5658 59.4219 46.0382 61.2254L46.3966 62.7215ZM57.156 43.4816L57.1537 43.4821L57.5126 44.9781L57.515 44.9776L57.156 43.4816ZM56.5378 44.2016L56.5875 44.4088L58.0836 44.0503L58.0339 43.8431L56.5378 44.2016Z" fill="black" mask="url(#path-6-inside-1)"/>
</g>
<ellipse cx="38.525" cy="41.4237" rx="1.73077" ry="2.59615" transform="rotate(-6.77646 38.525 41.4237)" fill="black"/>
<ellipse cx="50.8327" cy="39.5007" rx="1.73077" ry="2.59615" transform="rotate(-6.27568 50.8327 39.5007)" fill="black"/>
<path d="M51.6846 78.0639C51.5906 78.0581 51.5124 78.0524 51.4508 78.0475C50.2679 76.2419 49.1902 73.2633 48.3552 70.2036C47.5434 67.2287 46.9733 64.2245 46.759 62.2402C53.8885 60.179 58.3572 52.8206 57.2828 45.2287C57.2815 45.2154 57.2801 45.2061 57.28 45.2051L57.2799 45.205C57.2783 45.1935 57.2763 45.1804 57.2741 45.1668C57.271 45.1483 57.2671 45.1256 57.2624 45.0992C57.2601 45.0862 57.2576 45.0723 57.2549 45.0576C57.2386 44.9677 57.2145 44.8408 57.1833 44.682C57.1208 44.364 57.0291 43.9151 56.9118 43.3715C56.6773 42.2847 56.3398 40.8171 55.9279 39.2605C55.5164 37.7049 55.0292 36.0548 54.4946 34.6047C53.9639 33.1653 53.3732 31.8849 52.743 31.0972L52.686 31.026L52.6023 30.9897C52.2306 30.8285 51.8449 30.6489 51.4422 30.4614C49.5323 29.5721 47.2421 28.5057 44.276 28.3884C40.6654 28.2457 36.0931 29.4992 29.9123 33.9818L29.5233 34.264L29.8975 34.5655C32.9602 37.0335 33.6224 40.3072 33.4808 43.0862C33.3728 45.2071 32.7982 47.0114 32.474 47.9132C32.2507 47.5869 32.1084 47.1767 32.0015 46.695C31.9275 46.362 31.8736 46.0111 31.8171 45.6437L31.8082 45.5855C31.7492 45.202 31.6863 44.802 31.5947 44.4156C31.4117 43.6443 31.1022 42.8733 30.4154 42.3274C29.727 41.7802 28.7238 41.5092 27.2629 41.5907L26.8345 41.6146L26.9239 42.0342L29.1083 52.2867L29.112 52.3039L29.1173 52.3207C29.8976 54.7941 31.2358 56.9381 32.9467 58.6307C32.9536 58.6422 32.962 58.6563 32.9718 58.6728C32.9827 58.6913 32.9953 58.7128 33.0096 58.7372C33.0652 58.8324 33.1454 58.9717 33.2424 59.1467C33.4366 59.4968 33.6978 59.9887 33.9656 60.555C34.5068 61.699 35.0541 63.1035 35.1596 64.2503C35.2666 65.4142 34.974 66.9158 34.6389 68.1562C34.4731 68.7702 34.3002 69.3088 34.1687 69.6937C34.1413 69.7739 34.1158 69.8473 34.0925 69.9133C33.1247 69.4508 32.2604 69.4852 31.5196 69.9164C30.7189 70.3824 30.1325 71.2741 29.6959 72.2655C28.8982 74.0773 28.5145 76.427 28.3375 77.8851C23.5547 76.788 19.8617 75.6744 17.349 74.8282C16.0579 74.3935 15.0784 74.0293 14.4229 73.7744C14.0952 73.6469 13.8484 73.5468 13.6841 73.4787C13.6433 73.4618 13.6076 73.4469 13.577 73.4341C13.5476 73.3588 13.5072 73.2532 13.4582 73.119C13.3492 72.8206 13.1974 72.3815 13.0285 71.8229C12.6906 70.7053 12.2847 69.1116 12.0141 67.2119C11.4723 63.4086 11.4763 58.403 13.6288 53.5353C13.9767 52.7485 14.4115 51.9402 14.8827 51.0641C16.7035 47.6791 19.0683 43.2826 19.0683 35.2084C19.0683 29.3256 21.9236 24.3713 26.1273 20.8787C30.3349 17.383 35.8768 15.3675 41.1994 15.3675C44.1092 15.3675 46.4486 15.7009 48.3289 16.8367C50.1976 17.9656 51.669 19.9226 52.7618 23.2947C52.8731 23.6378 53.2405 23.8476 53.5997 23.7311C55.7758 23.0251 59.0752 23.7377 61.8601 25.5558C64.6329 27.366 66.7863 30.2011 66.7863 33.6181C66.7863 36.5846 66.2782 38.5892 65.7829 40.5413L65.7829 40.5413C65.1831 42.9046 64.6039 45.1873 65.0126 48.9063C65.1489 50.1465 65.4261 51.0261 65.8135 51.7553C66.1948 52.4728 66.6753 53.0283 67.1817 53.6138L67.1933 53.6271C68.3997 55.0218 68.9487 56.1691 69.126 57.1783C69.3029 58.1851 69.1177 59.0982 68.7735 60.0455C68.6006 60.5216 68.3902 60.9993 68.1672 61.5029L68.148 61.5464C67.9323 62.0334 67.7065 62.5434 67.5036 63.08C67.0839 64.1898 66.7562 65.4275 66.7888 66.8945C66.8165 68.1397 67.0373 68.9932 67.3674 69.6388C67.6939 70.2772 68.1152 70.6855 68.4828 71.0416L68.4927 71.0512C68.8279 71.376 69.1066 71.6495 69.313 72.0328C69.4974 72.3752 69.6342 72.8273 69.6571 73.5061C65.04 76.2521 60.4702 77.3871 57.0387 77.8335C55.3009 78.0595 53.857 78.1088 52.8496 78.1017C52.346 78.0981 51.9517 78.0805 51.6846 78.0639Z" fill="white" stroke="black" stroke-width="0.734969"/>
<path d="M68.0703 83.4736H15.5877C15.5944 83.4601 15.601 83.4465 15.6078 83.4328C16.4818 81.6529 18.0942 78.369 20.1928 75.431C21.3839 73.7635 22.7174 72.2283 24.1426 71.1484C25.568 70.0684 27.0503 69.4693 28.5561 69.6011C31.4511 69.8544 34.0298 71.4395 36.6186 73.0308C36.8639 73.1816 37.1093 73.3325 37.355 73.4822C40.1406 75.1798 43.001 76.756 46.147 76.0663C47.2114 75.8329 47.9286 75.3336 48.3801 74.6884C48.8251 74.0524 48.985 73.3133 49.0127 72.6378C49.0404 71.9613 48.9367 71.3219 48.829 70.857C48.7787 70.6396 48.7268 70.4574 48.6853 70.3238C49.3824 69.6221 50.1205 69.2135 50.8825 69.0295C51.7084 68.8301 52.5915 68.8877 53.5206 69.1625C55.3916 69.7159 57.3936 71.134 59.3474 72.9575C62.9271 76.2984 66.2116 80.8698 68.0703 83.4736Z" fill="white" stroke="black" stroke-width="0.821982"/>
<path d="M44.8667 42.1807C45.914 41.9421 47.6316 42.3 47.2545 44.2083C46.9195 45.9043 45.1181 45.9972 44.6154 45.5201" stroke="black" stroke-width="0.769231"/>
<path d="M41.3462 51.5703C42.2962 52.81 43.736 54.1835 45.957 53.8703C48.1779 53.5571 49.1661 52.0251 48.8747 50.7843" stroke="black" stroke-width="0.769231"/>
<path d="M29.1346 42.1492C28.6865 42.0016 28.2028 41.9231 27.7077 41.9231C25.6897 41.9231 24.0539 43.1731 24.2462 45.4808C24.4465 47.8846 25.882 48.75 27.9 48.75C28.1245 48.75 28.3443 48.7303 28.5577 48.6925C28.7905 48.6513 29.0156 48.5887 29.2308 48.5067" stroke="black" stroke-width="1.53846"/>
<path d="M29.3269 48.4685C28.8885 48.6498 28.4063 48.75 27.9 48.75C25.882 48.75 24.4465 47.8846 24.2462 45.4808C24.0539 43.1731 25.6897 41.9231 27.7077 41.9231C28.3111 41.9231 28.8974 42.0397 29.4231 42.2557L29.3269 48.4685Z" fill="white"/>
<path d="M28.5577 43.5578C27.7885 43.2053 26.0962 43.0194 25.4808 45.0963" stroke="black" stroke-width="0.769231"/>
<path d="M26.5385 43.6539C26.9551 44.0064 27.75 45.0962 27.5961 46.6346" stroke="black" stroke-width="0.769231"/>
<path d="M48.8461 35.4258C49.9359 34.913 52.5 34.4451 54.0384 36.6758" stroke="black" stroke-width="0.769231" stroke-linecap="round"/>
<path d="M34.3421 40.2925C34.7403 39.1559 36.2041 36.9992 38.8734 37.4659" stroke="black" stroke-width="0.769231" stroke-linecap="round"/>
<path d="M34.822 39.1265L33.6396 38.0829" stroke="black" stroke-width="0.769231" stroke-linecap="round"/>
<path d="M53.454 35.6071L54.6364 34.5635" stroke="black" stroke-width="0.769231" stroke-linecap="round"/>
<path d="M36.0622 38.0412L35.2839 36.6696" stroke="black" stroke-width="0.769231" stroke-linecap="round"/>
<path d="M52.0215 34.9064L52.7997 33.5348" stroke="black" stroke-width="0.769231" stroke-linecap="round"/>
<path d="M37.6153 37.3463L37.192 35.8271" stroke="black" stroke-width="0.769231" stroke-linecap="round"/>
<path d="M50.2761 34.7884L50.6993 33.2692" stroke="black" stroke-width="0.769231" stroke-linecap="round"/>
</g>
<defs>
<clipPath id="clip0">
<rect width="38.4615" height="61.5385" fill="#ffffff" transform="translate(21.9231 15)"/>
</clipPath>
</defs>
</svg>
